<svg width="97" height="27" viewBox="0 0 97 27" fill="none" xmlns="http://www.w3.org/2000/svg">
<path d="M3.4 23.948H12.436V26H0.88V0.835998H3.4V23.948ZM27.3363 26.252C25.0083 26.252 22.8963 25.712 21.0003 24.632C19.1043 23.528 17.6043 22.004 16.5003 20.06C15.4203 18.092 14.8803 15.872 14.8803 13.4C14.8803 10.928 15.4203 8.72 16.5003 6.776C17.6043 4.808 19.1043 3.284 21.0003 2.204C22.8963 1.1 25.0083 0.547999 27.3363 0.547999C29.6883 0.547999 31.8123 1.1 33.7083 2.204C35.6043 3.284 37.0923 4.808 38.1723 6.776C39.2523 8.72 39.7923 10.928 39.7923 13.4C39.7923 15.872 39.2523 18.092 38.1723 20.06C37.0923 22.004 35.6043 23.528 33.7083 24.632C31.8123 25.712 29.6883 26.252 27.3363 26.252ZM27.3363 24.056C29.2083 24.056 30.8883 23.624 32.3763 22.76C33.8643 21.896 35.0403 20.66 35.9043 19.052C36.7683 17.42 37.2003 15.536 37.2003 13.4C37.2003 11.264 36.7683 9.392 35.9043 7.784C35.0403 6.176 33.8643 4.94 32.3763 4.076C30.8883 3.212 29.2083 2.78 27.3363 2.78C25.4643 2.78 23.7843 3.212 22.2963 4.076C20.8083 4.94 19.6323 6.176 18.7683 7.784C17.9043 9.392 17.4723 11.264 17.4723 13.4C17.4723 15.536 17.9043 17.42 18.7683 19.052C19.6323 20.66 20.8083 21.896 22.2963 22.76C23.7843 23.624 25.4643 24.056 27.3363 24.056ZM64.2034 8.18C63.4834 6.524 62.3794 5.228 60.8914 4.292C59.4274 3.332 57.6994 2.852 55.7074 2.852C53.8354 2.852 52.1554 3.284 50.6674 4.148C49.1794 5.012 48.0034 6.248 47.1394 7.856C46.2754 9.44 45.8434 11.288 45.8434 13.4C45.8434 15.512 46.2754 17.372 47.1394 18.98C48.0034 20.588 49.1794 21.824 50.6674 22.688C52.1554 23.552 53.8354 23.984 55.7074 23.984C57.4594 23.984 59.0314 23.612 60.4234 22.868C61.8394 22.1 62.9674 21.02 63.8074 19.628C64.6714 18.212 65.1634 16.568 65.2834 14.696H54.6994V12.644H67.9474V14.48C67.8274 16.688 67.2274 18.692 66.1474 20.492C65.0674 22.268 63.6154 23.672 61.7914 24.704C59.9914 25.736 57.9634 26.252 55.7074 26.252C53.3794 26.252 51.2674 25.712 49.3714 24.632C47.4754 23.528 45.9754 22.004 44.8714 20.06C43.7914 18.092 43.2514 15.872 43.2514 13.4C43.2514 10.928 43.7914 8.72 44.8714 6.776C45.9754 4.808 47.4754 3.284 49.3714 2.204C51.2674 1.1 53.3794 0.547999 55.7074 0.547999C58.3954 0.547999 60.7474 1.22 62.7634 2.564C64.7794 3.908 66.2434 5.78 67.1554 8.18H64.2034ZM83.8676 26.252C81.5396 26.252 79.4276 25.712 77.5316 24.632C75.6356 23.528 74.1356 22.004 73.0316 20.06C71.9516 18.092 71.4116 15.872 71.4116 13.4C71.4116 10.928 71.9516 8.72 73.0316 6.776C74.1356 4.808 75.6356 3.284 77.5316 2.204C79.4276 1.1 81.5396 0.547999 83.8676 0.547999C86.2196 0.547999 88.3436 1.1 90.2396 2.204C92.1356 3.284 93.6236 4.808 94.7036 6.776C95.7836 8.72 96.3236 10.928 96.3236 13.4C96.3236 15.872 95.7836 18.092 94.7036 20.06C93.6236 22.004 92.1356 23.528 90.2396 24.632C88.3436 25.712 86.2196 26.252 83.8676 26.252ZM83.8676 24.056C85.7396 24.056 87.4196 23.624 88.9076 22.76C90.3956 21.896 91.5716 20.66 92.4356 19.052C93.2996 17.42 93.7316 15.536 93.7316 13.4C93.7316 11.264 93.2996 9.392 92.4356 7.784C91.5716 6.176 90.3956 4.94 88.9076 4.076C87.4196 3.212 85.7396 2.78 83.8676 2.78C81.9956 2.78 80.3156 3.212 78.8276 4.076C77.3396 4.94 76.1636 6.176 75.2996 7.784C74.4356 9.392 74.0036 11.264 74.0036 13.4C74.0036 15.536 74.4356 17.42 75.2996 19.052C76.1636 20.66 77.3396 21.896 78.8276 22.76C80.3156 23.624 81.9956 24.056 83.8676 24.056Z" fill="#828282"/>
</svg>
